<svg width="1440" height="904" viewBox="0 0 1440 904" fill="none" xmlns="http://www.w3.org/2000/svg">
<g clip-path="url(#clip0_79_250)">
<path d="M1441.43 -439.591L945.814 140.269V670.011L1441.43 1249.18" stroke="#888888" stroke-opacity="0.3" stroke-width="0.558553" stroke-linecap="round" stroke-linejoin="round"/>
<path d="M1441.13 -157.762L1058.96 140.271L1058.96 670.002L1441.12 968.77" stroke="#888888" stroke-opacity="0.3" stroke-width="0.558553" stroke-linecap="round" stroke-linejoin="round"/>
<path d="M1441.13 123.601L1398.39 140.27L1398.39 670.001L1441.12 686.704" stroke="#888888" stroke-opacity="0.3" stroke-width="0.558553" stroke-linecap="round" stroke-linejoin="round"/>
<path d="M357.935 -439.591L606.393 140.269L606.386 669.995L358.867 1249.18" stroke="#888888" stroke-opacity="0.3" stroke-width="0.558553" stroke-linecap="round" stroke-linejoin="round"/>
<path d="M1441.13 -17.0603L1172.1 140.27L1172.1 670.004L1441.12 827.718" stroke="#888888" stroke-opacity="0.3" stroke-width="0.558553" stroke-linecap="round" stroke-linejoin="round"/>
<path d="M-1.66809 -157.091L380.105 140.27L380.098 670.002L-1.6815 968.124" stroke="#888888" stroke-opacity="0.3" stroke-width="0.558553" stroke-linecap="round" stroke-linejoin="round"/>
<path d="M-1.68998 -16.6822L266.936 140.271V670.01L-1.68328 827.348" stroke="#888888" stroke-opacity="0.3" stroke-width="0.558553" stroke-linecap="round" stroke-linejoin="round"/>
<path d="M-1.69645 67.5833L153.789 140.27V670.01L-1.68304 742.869" stroke="#888888" stroke-opacity="0.3" stroke-width="0.558553" stroke-linecap="round" stroke-linejoin="round"/>
<path d="M-1.70293 123.773L40.6398 140.271V670.011L-1.68283 686.541" stroke="#888888" stroke-opacity="0.3" stroke-width="0.558553" stroke-linecap="round" stroke-linejoin="round"/>
<path d="M1080.24 -439.591L832.675 140.269V670.011L1079.33 1249.18" stroke="#888888" stroke-opacity="0.3" stroke-width="0.558553" stroke-linecap="round" stroke-linejoin="round"/>
<path d="M1441.13 67.3383L1285.24 140.271L1285.25 670.002L1441.12 743.105" stroke="#888888" stroke-opacity="0.3" stroke-width="0.558553" stroke-linecap="round" stroke-linejoin="round"/>
<path d="M719.086 -439.591L719.533 140.269V662.788L719.1 1249.18" stroke="#888888" stroke-opacity="0.3" stroke-width="0.558553" stroke-linecap="round" stroke-linejoin="round"/>
<path d="M-1.36704 -439.591L493.245 140.269L493.238 670.003L-1.36704 1249.18" stroke="#888888" stroke-opacity="0.3" stroke-width="0.558553" stroke-linecap="round" stroke-linejoin="round"/>
<path d="M1441.43 93.3835H-1.36604" stroke="#888888" stroke-opacity="0.3" stroke-width="0.558553" stroke-linecap="round" stroke-linejoin="round"/>
<path d="M1441.43 63.0954H-1.36604" stroke="#888888" stroke-opacity="0.3" stroke-width="0.558553" stroke-linecap="round" stroke-linejoin="round"/>
<path d="M1441.43 26.2925H-1.36604" stroke="#888888" stroke-opacity="0.3" stroke-width="0.558553" stroke-linecap="round" stroke-linejoin="round"/>
<path d="M1441.43 118.735H-1.36604" stroke="#888888" stroke-opacity="0.3" stroke-width="0.558553" stroke-linecap="round" stroke-linejoin="round"/>
<path d="M1441.12 888.508H-1.68261" stroke="#888888" stroke-opacity="0.3" stroke-width="0.558553" stroke-linecap="round" stroke-linejoin="round"/>
<path d="M1441.12 830.108H-1.68261" stroke="#888888" stroke-opacity="0.3" stroke-width="0.558553" stroke-linecap="round" stroke-linejoin="round"/>
<path d="M1441.12 784.29H-1.68261" stroke="#888888" stroke-opacity="0.3" stroke-width="0.558553" stroke-linecap="round" stroke-linejoin="round"/>
<path d="M1441.12 747.39H-1.68261" stroke="#888888" stroke-opacity="0.3" stroke-width="0.558553" stroke-linecap="round" stroke-linejoin="round"/>
<path d="M1441.12 717.025H-1.68261" stroke="#888888" stroke-opacity="0.3" stroke-width="0.558553" stroke-linecap="round" stroke-linejoin="round"/>
<path d="M1441.12 691.602H-1.68261" stroke="#888888" stroke-opacity="0.3" stroke-width="0.558553" stroke-linecap="round" stroke-linejoin="round"/>
<path d="M1441.12 670.009H-1.68261" stroke="#888888" stroke-opacity="0.3" stroke-width="0.558553" stroke-linecap="round" stroke-linejoin="round"/>
<path d="M-1.03201 140.269H1441.7" stroke="#888888" stroke-opacity="0.3" stroke-width="0.558553" stroke-linecap="round" stroke-linejoin="round"/>
<path d="M-1.03201 272.697H1441.7" stroke="#888888" stroke-opacity="0.3" stroke-width="0.558553" stroke-linecap="round" stroke-linejoin="round"/>
<path d="M-1.03201 405.128H1441.7" stroke="#888888" stroke-opacity="0.3" stroke-width="0.558553" stroke-linecap="round" stroke-linejoin="round"/>
<path d="M-1.03201 537.556H1441.7" stroke="#888888" stroke-opacity="0.3" stroke-width="0.558553" stroke-linecap="round" stroke-linejoin="round"/>
</g>
<defs>
<clipPath id="clip0_79_250">
<rect width="1444" height="904" fill="white" transform="translate(-2)"/>
</clipPath>
</defs>
</svg>
