<svg width="231" height="51" viewBox="0 0 231 51" fill="none" xmlns="http://www.w3.org/2000/svg">
<path fill-rule="evenodd" clip-rule="evenodd" d="M13.2944 32.1472C19.7295 32.1472 24.9462 26.9305 24.9462 20.4955H34.67C35.7347 20.4955 36.5979 21.3586 36.5979 22.4234V41.871C36.5979 42.9358 35.7347 43.799 34.67 43.799H15.2224C14.1576 43.799 13.2944 42.9358 13.2944 41.871V32.1472ZM13.2944 32.1472V22.4234C13.2944 21.3586 14.1576 20.4955 15.2224 20.4955H24.9462C24.9462 14.0604 19.7295 8.84369 13.2944 8.84369C6.85931 8.84369 1.64264 14.0604 1.64264 20.4955C1.64264 26.9305 6.85931 32.1472 13.2944 32.1472Z" fill="url(#paint0_linear_171_434)"/>
<path d="M1.64264 39.4915C1.64264 38.7816 2.21809 38.2062 2.92795 38.2062H5.95017C6.66003 38.2062 7.23548 38.7816 7.23548 39.4915V42.5137C7.23548 43.2236 6.66003 43.799 5.95017 43.799H2.92795C2.21809 43.799 1.64264 43.2236 1.64264 42.5137V39.4915Z" fill="url(#paint1_linear_171_434)"/>
<path d="M31.0051 11.6401C31.0051 10.0957 32.2571 8.84369 33.8015 8.84369V8.84369C35.3459 8.84369 36.5979 10.0957 36.5979 11.6401V11.6401C36.5979 13.1845 35.3459 14.4365 33.8015 14.4365V14.4365C32.2571 14.4365 31.0051 13.1845 31.0051 11.6401V11.6401Z" fill="url(#paint2_linear_171_434)"/>
<path fill-rule="evenodd" clip-rule="evenodd" d="M11.6518 30.5045C18.0869 30.5045 23.3035 25.2879 23.3035 18.8528H33.0273C34.0921 18.8528 34.9553 19.716 34.9553 20.7808V40.2283C34.9553 41.2931 34.0921 42.1563 33.0273 42.1563H13.5797C12.5149 42.1563 11.6518 41.2931 11.6518 40.2283V30.5045ZM11.6518 30.5045V20.7808C11.6518 19.716 12.5149 18.8528 13.5797 18.8528H23.3035C23.3035 12.4177 18.0869 7.20102 11.6518 7.20102C5.21667 7.20102 0 12.4177 0 18.8528C0 25.2879 5.21667 30.5045 11.6518 30.5045Z" fill="black"/>
<path d="M0.999981 38.8488C0.999981 38.139 1.57544 37.5635 2.28529 37.5635H5.30752C6.01737 37.5635 6.59283 38.139 6.59283 38.8488V41.871C6.59283 42.5809 6.01737 43.1564 5.30752 43.1564H2.28529C1.57543 43.1564 0.999981 42.5809 0.999981 41.871V38.8488Z" fill="black"/>
<path d="M30.3624 10.9975C30.3624 9.45308 31.6144 8.20108 33.1588 8.20108V8.20108C34.7033 8.20108 35.9553 9.45308 35.9553 10.9975V10.9975C35.9553 12.5419 34.7033 13.7939 33.1588 13.7939V13.7939C31.6144 13.7939 30.3624 12.5419 30.3624 10.9975V10.9975Z" fill="black"/>
<path d="M47.4371 39V11H58.9571C60.7171 11 62.2638 11.36 63.5971 12.08C64.9571 12.7733 66.0105 13.76 66.7571 15.04C67.5305 16.32 67.9171 17.84 67.9171 19.6V20.16C67.9171 21.8933 67.5171 23.4133 66.7171 24.72C65.9438 26 64.8771 27 63.5171 27.72C62.1838 28.4133 60.6638 28.76 58.9571 28.76H52.7171V39H47.4371ZM52.7171 23.96H58.4371C59.6905 23.96 60.7038 23.6133 61.4771 22.92C62.2505 22.2267 62.6371 21.28 62.6371 20.08V19.68C62.6371 18.48 62.2505 17.5333 61.4771 16.84C60.7038 16.1467 59.6905 15.8 58.4371 15.8H52.7171V23.96ZM71.7378 39V19.16H76.7778V39H71.7378ZM74.2578 16.84C73.3511 16.84 72.5778 16.5467 71.9378 15.96C71.3244 15.3733 71.0178 14.6 71.0178 13.64C71.0178 12.68 71.3244 11.9067 71.9378 11.32C72.5778 10.7333 73.3511 10.44 74.2578 10.44C75.1911 10.44 75.9644 10.7333 76.5778 11.32C77.1911 11.9067 77.4978 12.68 77.4978 13.64C77.4978 14.6 77.1911 15.3733 76.5778 15.96C75.9644 16.5467 75.1911 16.84 74.2578 16.84ZM80.6028 39L87.8028 29L80.6828 19.16H86.5228L91.0428 25.76H91.7628L96.2828 19.16H102.123L95.0028 29L102.203 39H96.2828L91.7628 32.32H91.0428L86.5228 39H80.6028ZM113.786 39.56C111.812 39.56 110.066 39.1467 108.546 38.32C107.052 37.4667 105.879 36.28 105.026 34.76C104.199 33.2133 103.786 31.4 103.786 29.32V28.84C103.786 26.76 104.199 24.96 105.026 23.44C105.852 21.8933 107.012 20.7067 108.506 19.88C109.999 19.0267 111.732 18.6 113.706 18.6C115.652 18.6 117.346 19.04 118.786 19.92C120.226 20.7733 121.346 21.9733 122.146 23.52C122.946 25.04 123.346 26.8133 123.346 28.84V30.56H108.906C108.959 31.92 109.466 33.0267 110.426 33.88C111.386 34.7333 112.559 35.16 113.946 35.16C115.359 35.16 116.399 34.8533 117.066 34.24C117.732 33.6267 118.239 32.9467 118.586 32.2L122.706 34.36C122.332 35.0533 121.786 35.8133 121.066 36.64C120.372 37.44 119.439 38.1333 118.266 38.72C117.092 39.28 115.599 39.56 113.786 39.56ZM108.946 26.8H118.226C118.119 25.6533 117.652 24.7333 116.826 24.04C116.026 23.3467 114.972 23 113.666 23C112.306 23 111.226 23.3467 110.426 24.04C109.626 24.7333 109.132 25.6533 108.946 26.8ZM127.832 39V19.16H132.792V21.76H133.512C133.832 21.0667 134.432 20.4133 135.312 19.8C136.192 19.16 137.525 18.84 139.312 18.84C140.858 18.84 142.205 19.2 143.352 19.92C144.525 20.6133 145.432 21.5867 146.072 22.84C146.712 24.0667 147.032 25.5067 147.032 27.16V39H141.992V27.56C141.992 26.0667 141.618 24.9467 140.872 24.2C140.152 23.4533 139.112 23.08 137.752 23.08C136.205 23.08 135.005 23.6 134.152 24.64C133.298 25.6533 132.872 27.08 132.872 28.92V39H127.832ZM159.533 39C158.226 39 157.16 38.6 156.333 37.8C155.533 36.9733 155.133 35.88 155.133 34.52V23.32H150.173V19.16H155.133V13H160.173V19.16H165.613V23.32H160.173V33.64C160.173 34.44 160.546 34.84 161.293 34.84H165.133V39H159.533ZM173.335 39.56C172.269 39.56 171.362 39.2133 170.615 38.52C169.895 37.8 169.535 36.88 169.535 35.76C169.535 34.64 169.895 33.7333 170.615 33.04C171.362 32.32 172.269 31.96 173.335 31.96C174.429 31.96 175.335 32.32 176.055 33.04C176.775 33.7333 177.135 34.64 177.135 35.76C177.135 36.88 176.775 37.8 176.055 38.52C175.335 39.2133 174.429 39.56 173.335 39.56ZM184.233 39.224C183.369 39.224 182.607 39.0693 181.945 38.76C181.284 38.4507 180.767 38.008 180.393 37.432C180.02 36.856 179.833 36.1627 179.833 35.352V34.904H181.913V35.352C181.913 36.024 182.121 36.5307 182.537 36.872C182.953 37.2027 183.519 37.368 184.233 37.368C184.959 37.368 185.497 37.224 185.849 36.936C186.212 36.648 186.393 36.28 186.393 35.832C186.393 35.5227 186.303 35.272 186.121 35.08C185.951 34.888 185.695 34.7333 185.353 34.616C185.023 34.488 184.617 34.3707 184.137 34.264L183.769 34.184C183.001 34.0133 182.34 33.8 181.785 33.544C181.241 33.2773 180.82 32.9307 180.521 32.504C180.233 32.0773 180.089 31.5227 180.089 30.84C180.089 30.1573 180.249 29.576 180.569 29.096C180.9 28.6053 181.359 28.232 181.945 27.976C182.543 27.7093 183.241 27.576 184.041 27.576C184.841 27.576 185.551 27.7147 186.169 27.992C186.799 28.2587 187.289 28.664 187.641 29.208C188.004 29.7413 188.185 30.4133 188.185 31.224V31.704H186.105V31.224C186.105 30.7973 186.02 30.456 185.849 30.2C185.689 29.9333 185.455 29.7413 185.145 29.624C184.836 29.496 184.468 29.432 184.041 29.432C183.401 29.432 182.927 29.5547 182.617 29.8C182.319 30.0347 182.169 30.36 182.169 30.776C182.169 31.0533 182.239 31.288 182.377 31.48C182.527 31.672 182.745 31.832 183.033 31.96C183.321 32.088 183.689 32.2 184.137 32.296L184.505 32.376C185.305 32.5467 185.999 32.7653 186.585 33.032C187.183 33.2987 187.647 33.6507 187.977 34.088C188.308 34.5253 188.473 35.0853 188.473 35.768C188.473 36.4507 188.297 37.0533 187.945 37.576C187.604 38.088 187.113 38.4933 186.473 38.792C185.844 39.08 185.097 39.224 184.233 39.224ZM193.152 39C192.63 39 192.203 38.84 191.872 38.52C191.552 38.1893 191.392 37.752 191.392 37.208V32.728H189.408V31.064H191.392V28.6H193.408V31.064H195.584V32.728H193.408V36.856C193.408 37.176 193.558 37.336 193.856 37.336H195.392V39H193.152ZM200.433 39.128C199.815 39.128 199.271 38.9893 198.801 38.712C198.343 38.424 197.985 38.0293 197.729 37.528C197.473 37.0267 197.345 36.4507 197.345 35.8V31.064H199.361V35.64C199.361 36.2373 199.505 36.6853 199.793 36.984C200.092 37.2827 200.513 37.432 201.057 37.432C201.676 37.432 202.156 37.2293 202.497 36.824C202.839 36.408 203.009 35.832 203.009 35.096V31.064H205.025V39H203.041V37.96H202.753C202.625 38.2267 202.385 38.488 202.033 38.744C201.681 39 201.148 39.128 200.433 39.128ZM210.469 39.224C209.839 39.224 209.247 39.0693 208.693 38.76C208.149 38.44 207.711 37.976 207.381 37.368C207.05 36.76 206.885 36.024 206.885 35.16V34.904C206.885 34.04 207.05 33.304 207.381 32.696C207.711 32.088 208.149 31.6293 208.693 31.32C209.237 31 209.829 30.84 210.469 30.84C210.949 30.84 211.349 30.8987 211.669 31.016C211.999 31.1227 212.266 31.2613 212.469 31.432C212.671 31.6027 212.826 31.784 212.933 31.976H213.221V27.8H215.237V39H213.253V38.04H212.965C212.783 38.3387 212.501 38.6107 212.117 38.856C211.743 39.1013 211.194 39.224 210.469 39.224ZM211.077 37.464C211.695 37.464 212.213 37.2667 212.629 36.872C213.045 36.4667 213.253 35.88 213.253 35.112V34.952C213.253 34.184 213.045 33.6027 212.629 33.208C212.223 32.8027 211.706 32.6 211.077 32.6C210.458 32.6 209.941 32.8027 209.525 33.208C209.109 33.6027 208.901 34.184 208.901 34.952V35.112C208.901 35.88 209.109 36.4667 209.525 36.872C209.941 37.2667 210.458 37.464 211.077 37.464ZM217.472 39V31.064H219.488V39H217.472ZM218.48 30.136C218.117 30.136 217.808 30.0187 217.552 29.784C217.307 29.5493 217.184 29.24 217.184 28.856C217.184 28.472 217.307 28.1627 217.552 27.928C217.808 27.6933 218.117 27.576 218.48 27.576C218.853 27.576 219.163 27.6933 219.408 27.928C219.653 28.1627 219.776 28.472 219.776 28.856C219.776 29.24 219.653 29.5493 219.408 29.784C219.163 30.0187 218.853 30.136 218.48 30.136ZM225.498 39.224C224.709 39.224 223.999 39.064 223.37 38.744C222.741 38.424 222.245 37.96 221.882 37.352C221.519 36.744 221.338 36.0133 221.338 35.16V34.904C221.338 34.0507 221.519 33.32 221.882 32.712C222.245 32.104 222.741 31.64 223.37 31.32C223.999 31 224.709 30.84 225.498 30.84C226.287 30.84 226.997 31 227.626 31.32C228.255 31.64 228.751 32.104 229.114 32.712C229.477 33.32 229.658 34.0507 229.658 34.904V35.16C229.658 36.0133 229.477 36.744 229.114 37.352C228.751 37.96 228.255 38.424 227.626 38.744C226.997 39.064 226.287 39.224 225.498 39.224ZM225.498 37.432C226.117 37.432 226.629 37.2347 227.034 36.84C227.439 36.4347 227.642 35.8587 227.642 35.112V34.952C227.642 34.2053 227.439 33.6347 227.034 33.24C226.639 32.8347 226.127 32.632 225.498 32.632C224.879 32.632 224.367 32.8347 223.962 33.24C223.557 33.6347 223.354 34.2053 223.354 34.952V35.112C223.354 35.8587 223.557 36.4347 223.962 36.84C224.367 37.2347 224.879 37.432 225.498 37.432Z" fill="currentColor"/>
<defs>
<linearGradient id="paint0_linear_171_434" x1="1.64264" y1="26.3213" x2="36.5979" y2="26.3213" gradientUnits="userSpaceOnUse">
<stop stop-color="#0B47F2"/>
<stop offset="0.166667" stop-color="#3998FF"/>
<stop offset="0.333333" stop-color="#4ECAFF"/>
<stop offset="0.5" stop-color="#9C4EFF"/>
<stop offset="0.67" stop-color="#D763FF"/>
<stop offset="0.833333" stop-color="#FFAD4E"/>
<stop offset="1" stop-color="#FF7979"/>
</linearGradient>
<linearGradient id="paint1_linear_171_434" x1="1.64264" y1="41.0026" x2="7.23548" y2="41.0026" gradientUnits="userSpaceOnUse">
<stop stop-color="#0B47F2"/>
<stop offset="0.166667" stop-color="#3998FF"/>
<stop offset="0.333333" stop-color="#4ECAFF"/>
<stop offset="0.5" stop-color="#9C4EFF"/>
<stop offset="0.67" stop-color="#D763FF"/>
<stop offset="0.833333" stop-color="#FFAD4E"/>
<stop offset="1" stop-color="#FF7979"/>
</linearGradient>
<linearGradient id="paint2_linear_171_434" x1="31.0051" y1="11.6401" x2="36.5979" y2="11.6401" gradientUnits="userSpaceOnUse">
<stop stop-color="#0B47F2"/>
<stop offset="0.166667" stop-color="#3998FF"/>
<stop offset="0.333333" stop-color="#4ECAFF"/>
<stop offset="0.5" stop-color="#9C4EFF"/>
<stop offset="0.67" stop-color="#D763FF"/>
<stop offset="0.833333" stop-color="#FFAD4E"/>
<stop offset="1" stop-color="#FF7979"/>
</linearGradient>
</defs>
</svg>
